<svg xmlns="http://www.w3.org/2000/svg" xmlns:xlink="http://www.w3.org/1999/xlink" width="21" height="23" viewBox="0 0 21 23"><defs><path id="w7iva" d="M1078.536 32.62v-1.267a1.175 1.175 0 1 1 2.353 0v1.267l.441.113a6.472 6.472 0 0 1 4.853 6.267v4.705c0 .76.613 1.373 1.372 1.373.54 0 .98.44.98.98s-.44.981-.984.981h-15.678a.982.982 0 0 1-.984-.98c0-.54.44-.98.98-.98.758 0 1.373-.616 1.373-1.374V39a6.472 6.472 0 0 1 4.852-6.267zm3.298 15.596a2.158 2.158 0 0 1-4.243 0zm5.717 0a2.16 2.16 0 0 0 2.161-2.157 2.16 2.16 0 0 0-2.157-2.157.194.194 0 0 1-.196-.197V39a7.65 7.65 0 0 0-5.294-7.278v-.369a2.352 2.352 0 0 0-2.353-2.353 2.354 2.354 0 0 0-2.353 2.353v.369a7.65 7.65 0 0 0-5.294 7.278v4.705a.197.197 0 0 1-.195.197 2.158 2.158 0 0 0-2.158 2.157c0 1.191.968 2.157 2.16 2.157h4.53a3.334 3.334 0 0 0 6.62 0z"/></defs><g><g transform="translate(-1069 -29)"><use xlink:href="#w7iva"/></g></g></svg>