<svg xmlns="http://www.w3.org/2000/svg" xmlns:xlink="http://www.w3.org/1999/xlink" width="40" height="40" viewBox="0 0 40 40"><defs><path id="9kp9a" d="M339.535 40.065h-.032a1.29 1.29 0 0 1-1.293-1.286v-.28c0-1.101-.82-2.061-1.91-2.162-.047-.002-.093-.007-.141-.005-.049-.002-.095.003-.143.005-1.09.101-1.91 1.06-1.91 2.163v.279a1.286 1.286 0 0 1-2.572 0v-2.851c0-1.121-.845-2.1-1.964-2.172a2.105 2.105 0 0 0-2.244 2.1v.117a1.052 1.052 0 0 1-2.105 0v-2.617c0-1.121-.846-2.1-1.964-2.172a2.105 2.105 0 0 0-2.245 2.1v8.452c0 .627-.507 1.134-1.134 1.134h-.03a1.17 1.17 0 0 1-1.174-1.169v-5.773c0-1.121-.846-2.1-1.965-2.172a2.105 2.105 0 0 0-2.244 2.1v2.961c0 .689-.558 1.248-1.247 1.248h-.033a1.287 1.287 0 0 1-1.29-1.272l-.002-.014v-.28a2.2 2.2 0 0 0-1.235-1.978 2.045 2.045 0 0 0-1.3-.144 2.004 2.004 0 0 0-.522.186 2.2 2.2 0 0 0-1.15 1.937v.279l-.002.013a1.285 1.285 0 0 1-1.285 1.273c-.234 0-.451-.068-.64-.178.575-9.012 8.086-16.169 17.24-16.169 9.142 0 16.644 7.136 17.24 16.129-.201.137-.443.218-.704.218zM323 58.28c-9.155 0-16.666-7.157-17.242-16.168.19-.11.407-.178.641-.178.706 0 1.278.569 1.285 1.273l.002.013v.513c0 1.12.845 2.1 1.964 2.172a2.105 2.105 0 0 0 2.243-2.1v-.585l.001-.014a1.285 1.285 0 0 1 2.571.014v2.851c0 1.121.846 2.1 1.965 2.172a2.104 2.104 0 0 0 2.244-2.1v-.269c0-.626.508-1.134 1.134-1.134h.03a1.17 1.17 0 0 1 1.174 1.17v2.733c0 1.121.846 2.1 1.965 2.172a2.104 2.104 0 0 0 2.244-2.1v-9.002a1.052 1.052 0 1 1 2.105 0v6.358c0 1.121.846 2.1 1.964 2.172a2.104 2.104 0 0 0 2.245-2.1v-2.923a1.286 1.286 0 1 1 2.572 0v.513c0 1.114.836 2.085 1.944 2.168a2.1 2.1 0 0 0 2.16-2.096v-.585a1.286 1.286 0 0 1 1.286-1.286c.276 0 .53.09.74.237-.606 8.984-8.103 16.11-17.237 16.11zm18.763-24.203C338.941 26.451 331.596 21 323 21c-8.622 0-15.986 5.484-18.79 13.146A19.906 19.906 0 0 0 303 41c0 2.409.428 4.72 1.212 6.86C307.018 55.52 314.381 61 323 61c8.602 0 15.951-5.459 18.77-13.094A19.908 19.908 0 0 0 343 41c0-2.432-.438-4.764-1.237-6.922z"/></defs><g><g transform="translate(-303 -21)"><use fill="#2c1d50" xlink:href="#9kp9a"/></g></g></svg>