<?xml version="1.0" standalone="no"?>
<!DOCTYPE svg PUBLIC "-//W3C//DTD SVG 20010904//EN"
 "http://www.w3.org/TR/2001/REC-SVG-20010904/DTD/svg10.dtd">
<svg version="1.0" xmlns="http://www.w3.org/2000/svg"
 width="16.000000pt" height="16.000000pt" viewBox="0 0 16.000000 16.000000"
 preserveAspectRatio="xMidYMid meet">
<metadata>
Created by potrace 1.11, written by Peter Selinger 2001-2013
</metadata>
<g transform="translate(0.000000,16.000000) scale(0.017021,-0.017021)"
fill="#000000" stroke="none">
<path d="M351 819 c-37 -11 -106 -55 -132 -85 -117 -132 -110 -403 12 -525 59
-59 119 -82 219 -82 102 -1 161 23 215 86 32 37 73 123 64 131 -2 2 -31 12
-64 22 l-60 19 -25 -49 c-45 -89 -120 -117 -202 -77 -60 29 -87 78 -96 178
-12 126 21 224 89 259 34 17 103 20 140 6 30 -12 79 -67 79 -89 0 -9 6 -13 14
-10 7 3 34 8 58 12 69 10 73 16 51 66 -43 96 -128 146 -250 147 -43 0 -93 -4
-112 -9z"/>
</g>
</svg>
